<?xml version="1.0" encoding="UTF-8"?>
<svg width="32px" height="29px" viewBox="0 0 32 29" version="1.1" xmlns="http://www.w3.org/2000/svg" xmlns:xlink="http://www.w3.org/1999/xlink">
    <!-- Generator: Sketch 45.1 (43504) - http://www.bohemiancoding.com/sketch -->
    <title>Group 8</title>
    <desc>Created with Sketch.</desc>
    <defs>
        <path d="M15,3 L17.4142136,5.41421356 L17.4142136,5.41421356 C17.7892863,5.78928632 18,6.29799415 18,6.82842712 L18,19.0622613 L18,19.0622613 C18,19.9666329 17.266862,20.699771 16.3624904,20.699771 C15.8149838,20.699771 15.303702,20.4261412 15,19.9705882 L12.3358994,15.9744374 L12.3358994,15.9744374 C12.1168761,15.6459023 12,15.2598869 12,14.865037 L12,4.24264069 L12,4.24264069 C12,3.27207794 12.7867966,2.48528137 13.7573593,2.48528137 C14.22344,2.48528137 14.6704312,2.6704312 15,3 Z" id="path-1"></path>
        <path d="M14,8.59312486e-14 L28.8051396,8.59312486e-14 L28.8051396,8.57092175e-14 C29.9097091,8.55063091e-14 30.8051396,0.8954305 30.8051396,2 C30.8051396,2.30272535 30.7364188,2.60150102 30.6041573,2.87380514 L28,8.23532651 L30.6041436,13.5967775 L30.6041436,13.5967775 C31.0867359,14.5903461 30.6725079,15.7870109 29.6789393,16.2696032 C29.4066337,16.4018664 29.1078561,16.4705882 28.8051286,16.4705882 L14,16.4705882 L14,16.4705882 C12.8954305,16.4705882 12,15.5751577 12,14.4705882 L12,2 L12,2 C12,0.8954305 12.8954305,8.45798583e-14 14,8.43769499e-14 Z" id="path-2"></path>
    </defs>
    <g id="Page-1" stroke="none" stroke-width="1" fill="none" fill-rule="evenodd">
        <g id="Desktop-HD-Copy-7" transform="translate(-607.000000, -332.000000)">
            <g id="Group-8" transform="translate(607.000000, 332.000000)">
                <g id="Group-7">
                    <g id="Group-5">
                        <g id="Group-4" transform="translate(1.000000, 0.000000)">
                            <path d="M2.44530894,6 L16,6 L16,6 C17.1045695,6 18,6.8954305 18,8 L18,18.8235294 L18,18.8235294 C18,19.9280989 17.1045695,20.8235294 16,20.8235294 L4.63578513,20.8235294 L4.63578513,20.8235294 C3.68414327,20.8235294 2.86429368,20.1529805 2.67552647,19.2202484 L0.485050277,8.39671901 L0.485050277,8.39671901 C0.265948415,7.31409805 0.965968959,6.2588432 2.04858992,6.03974134 C2.17917578,6.01331325 2.31207565,6 2.44530894,6 Z" id="Rectangle-8-Copy-3" fill="#50E3C2"></path>
                            <g id="Rectangle-8-Copy-5">
                                <use fill="#50E3C2" xlink:href="#path-1"></use>
                                <use fill-opacity="0.2" fill="#000000" xlink:href="#path-1"></use>
                            </g>
                            <g id="Rectangle-8-Copy-4">
                                <use fill="#50E3C2" xlink:href="#path-2"></use>
                                <use fill-opacity="0.1" fill="#000000" xlink:href="#path-2"></use>
                            </g>
                        </g>
                        <rect id="Rectangle-11" fill="#47CBAE" transform="translate(2.985122, 18.497894) rotate(-11.000000) translate(-2.985122, -18.497894) " x="1.98512163" y="7.99789442" width="2" height="21"></rect>
                    </g>
                </g>
            </g>
        </g>
    </g>
</svg>