<?xml version="1.0" encoding="UTF-8"?>
<svg width="32px" height="28px" viewBox="0 0 32 28" version="1.1" xmlns="http://www.w3.org/2000/svg" xmlns:xlink="http://www.w3.org/1999/xlink">
    <!-- Generator: Sketch 45.1 (43504) - http://www.bohemiancoding.com/sketch -->
    <title>Group 6</title>
    <desc>Created with Sketch.</desc>
    <defs></defs>
    <g id="Page-1" stroke="none" stroke-width="1" fill="none" fill-rule="evenodd">
        <g id="Desktop-HD-Copy-7" transform="translate(-454.000000, -332.000000)">
            <g id="Group-6" transform="translate(454.000000, 332.000000)">
                <rect id="Rectangle-8" fill="#4A90E2" x="0" y="2" width="32" height="26" rx="2"></rect>
                <path d="M2,2 L30,2 L30,2 C31.1045695,2 32,2.8954305 32,4 L32,7 L0,7 L0,4 L0,4 C-1.3527075e-16,2.8954305 0.8954305,2 2,2 Z" id="Rectangle-8-Copy" fill-opacity="0.1" fill="#000000"></path>
                <rect id="Rectangle-9" fill="#4A90E2" x="6" y="0" width="2" height="4"></rect>
                <rect id="Rectangle-9-Copy-2" fill="#4A90E2" x="15" y="0" width="2" height="4"></rect>
                <rect id="Rectangle-9-Copy" fill="#4A90E2" x="24" y="0" width="2" height="4"></rect>
                <rect id="Rectangle-10" fill="#FFFFFF" x="4" y="10" width="6" height="2"></rect>
                <rect id="Rectangle-10-Copy" fill="#FFFFFF" x="13" y="10" width="6" height="2"></rect>
                <rect id="Rectangle-10-Copy-2" fill="#FFFFFF" x="22" y="10" width="6" height="2"></rect>
                <rect id="Rectangle-10-Copy-5" fill="#FFFFFF" x="4" y="16" width="6" height="2"></rect>
                <rect id="Rectangle-10-Copy-4" fill="#FFFFFF" x="13" y="16" width="6" height="2"></rect>
                <rect id="Rectangle-10-Copy-3" fill="#FFFFFF" x="22" y="16" width="6" height="2"></rect>
                <rect id="Rectangle-10-Copy-8" fill="#FFFFFF" x="4" y="22" width="6" height="2"></rect>
                <rect id="Rectangle-10-Copy-7" fill="#FFFFFF" x="13" y="22" width="6" height="2"></rect>
                <rect id="Rectangle-10-Copy-6" fill="#FFFFFF" x="22" y="22" width="6" height="2"></rect>
            </g>
        </g>
    </g>
</svg>