<?xml version="1.0" encoding="UTF-8"?>
<svg width="32px" height="26px" viewBox="0 0 32 26" version="1.1" xmlns="http://www.w3.org/2000/svg" xmlns:xlink="http://www.w3.org/1999/xlink">
    <!-- Generator: Sketch 45.1 (43504) - http://www.bohemiancoding.com/sketch -->
    <title>Group 9</title>
    <desc>Created with Sketch.</desc>
    <defs></defs>
    <g id="Page-1" stroke="none" stroke-width="1" fill="none" fill-rule="evenodd">
        <g id="Desktop-HD-Copy-7" transform="translate(-761.000000, -332.000000)">
            <g id="Group-9" transform="translate(761.000000, 332.000000)">
                <rect id="Rectangle-8-Copy-2" fill="#BD10E0" x="0" y="0" width="32" height="26" rx="2"></rect>
                <path d="M2,0 L30,0 L30,0 C31.1045695,-2.02906125e-16 32,0.8954305 32,2 L32,8 L0,8 L0,2 L0,2 C-1.3527075e-16,0.8954305 0.8954305,-6.85272294e-16 2,-8.8817842e-16 Z" id="Rectangle-8-Copy-6" fill-opacity="0.1" fill="#000000"></path>
                <path d="M0,8 L16,8 L16,26 L2,26 L2,26 C0.8954305,26 1.3527075e-16,25.1045695 0,24 L0,8 Z" id="Rectangle-8-Copy-7" fill-opacity="0.2" fill="#000000"></path>
            </g>
        </g>
    </g>
</svg>